<?xml version="1.0" encoding="UTF-8"?>
<svg id="Capa_1" data-name="Capa 1" xmlns="http://www.w3.org/2000/svg" viewBox="0 0 204.33 135.41">
  <defs>
    <style>
      .cls-1 {
        fill: #58808a;
      }

      .cls-2 {
        fill: #fff;
      }

      .cls-3 {
        fill: #f5e7b9;
      }

      .cls-4 {
        fill: #a11d1b;
      }

      .cls-5 {
        fill: #fdc52b;
      }

      .cls-6 {
        fill: #afafad;
      }

      .cls-7 {
        fill: #706f6f;
      }

      .cls-8 {
        fill: #e2261d;
      }

      .cls-9 {
        fill: #69a1ad;
      }

      .cls-10 {
        fill: #d5ab37;
      }
    </style>
  </defs>
  <path id="Trazado_721" data-name="Trazado 721" class="cls-6" d="m194.08,35.25H10.33l-1.44-16.36h186.56l-1.37,16.36Z"/>
  <path id="Trazado_722" data-name="Trazado 722" class="cls-6" d="m191.54,41.2l-.4,8.03-4.36,86.18H15.72l-2.71-87.34-.21-6.86h178.74Z"/>
  <path id="Trazado_723" data-name="Trazado 723" class="cls-10" d="m191.54,41.2l-.4,8.03-178.13-1.16-.21-6.86h178.74Z"/>
  <path id="Trazado_724" data-name="Trazado 724" class="cls-5" d="m197,45.53l-189.42-1.23-1.62-11.61h192.39l-1.36,12.85Z"/>
  <path id="Trazado_725" data-name="Trazado 725" class="cls-4" d="m197.97,20.86H6.69l-1.12-6.28h193.18l-.79,6.28Z"/>
  <path id="Trazado_726" data-name="Trazado 726" class="cls-9" d="m175.13,66.94l-.26,11.27-.37,15.91h0l-.23,9.86h0l-.7,29.57h-29.44l-.33-8.55-.92-24-1.26-32.74,23.62-.93,9.9-.38Z"/>
  <g id="Grupo_516" data-name="Grupo 516">
    <g id="Grupo_515" data-name="Grupo 515">
      <path id="Trazado_727" data-name="Trazado 727" class="cls-2" d="m176.05,67.2l-.26,11.27-31.08,46.8-.92-24,22.36-33.67,9.9-.39Z"/>
      <path id="Trazado_728" data-name="Trazado 728" class="cls-2" d="m175.42,94.38l-.23,9.86h0l-19.63,29.57h-6.33l26.19-39.43Z"/>
    </g>
  </g>
  <path id="Trazado_729" data-name="Trazado 729" class="cls-3" d="m139.69,66.47l2.64,68.94h33.06l1.65-70.41-37.35,1.47Zm4.43,67.08l-2.5-65.29,33.52-1.32-1.56,66.61h-29.45Z"/>
  <path id="Trazado_730" data-name="Trazado 730" class="cls-8" d="m202.97,18.18L1.36,17.02,0,5.78l204.33-1.23-1.36,13.62Z"/>
  <g id="Grupo_523" data-name="Grupo 523">
    <path id="Trazado_731" data-name="Trazado 731" class="cls-3" d="m121.18,117.66l-91.82-1.6-1.74-58.84h95.16l-1.6,60.44Z"/>
    <g id="Grupo_517" data-name="Grupo 517">
      <path id="Trazado_732" data-name="Trazado 732" class="cls-9" d="m120.39,59.54l-.31,11.69-.41,15.36-.25,9.53-.51,19.17-12.08-.21-6.01-.11-9.68-.17-16.02-.28-31.47-.55-6.01-.1-6.02-.11-.16-5.34-.69-23.36-.75-25.53h90.38Z"/>
    </g>
    <g id="Grupo_519" data-name="Grupo 519">
      <g id="Grupo_518" data-name="Grupo 518">
        <rect id="Rectángulo_486" data-name="Rectángulo 486" class="cls-1" x="41.08" y="71.06" width="2.88" height="42.92"/>
        <rect id="Rectángulo_487" data-name="Rectángulo 487" class="cls-1" x="41.01" y="83.83" width="64.81" height="2.88"/>
        <rect id="Rectángulo_488" data-name="Rectángulo 488" class="cls-1" x="41.01" y="104.56" width="64.81" height="2.88"/>
        <path id="Trazado_733" data-name="Trazado 733" class="cls-1" d="m74.98,114.54l-2.88-.05v-43.42h2.88v43.47Z"/>
        <path id="Trazado_734" data-name="Trazado 734" class="cls-1" d="m106,115.06l-2.88-.08v-43.92h2.88v44Z"/>
      </g>
      <rect id="Rectángulo_489" data-name="Rectángulo 489" class="cls-1" x="46.03" y="77.4" width="4.25" height="7.21"/>
      <rect id="Rectángulo_490" data-name="Rectángulo 490" class="cls-1" x="54.37" y="95.35" width="5.39" height="9.15"/>
      <rect id="Rectángulo_491" data-name="Rectángulo 491" class="cls-1" x="51.56" y="80.27" width="5.47" height="3.75"/>
      <rect id="Rectángulo_492" data-name="Rectángulo 492" class="cls-1" x="57.85" y="80.27" width="5.47" height="3.75"/>
      <rect id="Rectángulo_493" data-name="Rectángulo 493" class="cls-1" x="76.67" y="98.85" width="5.47" height="5.76"/>
      <rect id="Rectángulo_494" data-name="Rectángulo 494" class="cls-1" x="82.96" y="98.85" width="5.47" height="5.76"/>
      <rect id="Rectángulo_495" data-name="Rectángulo 495" class="cls-1" x="89.69" y="98.85" width="5.47" height="5.76"/>
      <rect id="Rectángulo_496" data-name="Rectángulo 496" class="cls-1" x="95.98" y="98.85" width="5.47" height="5.76"/>
      <rect id="Rectángulo_497" data-name="Rectángulo 497" class="cls-1" x="79.81" y="93.11" width="5.47" height="5.76"/>
      <rect id="Rectángulo_498" data-name="Rectángulo 498" class="cls-1" x="86.1" y="93.11" width="5.47" height="5.76"/>
      <rect id="Rectángulo_499" data-name="Rectángulo 499" class="cls-1" x="92.43" y="93.11" width="5.47" height="5.76"/>
      <rect id="Rectángulo_500" data-name="Rectángulo 500" class="cls-1" x="67.58" y="73.37" width="3.05" height="11.9"/>
      <rect id="Rectángulo_501" data-name="Rectángulo 501" class="cls-1" x="64.37" y="78.72" width="2.26" height="6.56"/>
      <rect id="Rectángulo_502" data-name="Rectángulo 502" class="cls-1" x="77.73" y="78.25" width="6.97" height="6.36"/>
      <rect id="Rectángulo_503" data-name="Rectángulo 503" class="cls-1" x="46.05" y="98.29" width="6.97" height="6.36"/>
      <rect id="Rectángulo_504" data-name="Rectángulo 504" class="cls-1" x="68.49" y="95.35" width="2.3" height="9.15"/>
      <rect id="Rectángulo_505" data-name="Rectángulo 505" class="cls-1" x="61.17" y="98.29" width="6.14" height="6.36"/>
      <rect id="Rectángulo_506" data-name="Rectángulo 506" class="cls-1" x="86.53" y="78.25" width="6.97" height="6.36"/>
      <rect id="Rectángulo_507" data-name="Rectángulo 507" class="cls-1" x="95.32" y="78.25" width="6.97" height="6.36"/>
      <rect id="Rectángulo_508" data-name="Rectángulo 508" class="cls-1" x="81.96" y="71.9" width="6.97" height="6.36"/>
      <rect id="Rectángulo_509" data-name="Rectángulo 509" class="cls-1" x="90.52" y="71.9" width="6.97" height="6.36"/>
    </g>
    <g id="Grupo_522" data-name="Grupo 522">
      <g id="Grupo_520" data-name="Grupo 520">
        <path id="Trazado_735" data-name="Trazado 735" class="cls-2" d="m63.93,59.54l-32.47,48.9-.69-23.37,16.95-25.53h16.21Z"/>
        <path id="Trazado_736" data-name="Trazado 736" class="cls-2" d="m79.8,59.54l-36.15,54.44-6.01-.1,36.09-54.34h6.08Z"/>
      </g>
      <g id="Grupo_521" data-name="Grupo 521">
        <path id="Trazado_737" data-name="Trazado 737" class="cls-2" d="m120.39,59.54l-.31,11.69-28.94,43.58-16.02-.28,36.51-54.99h8.76Z"/>
        <path id="Trazado_738" data-name="Trazado 738" class="cls-2" d="m119.68,86.6l-.25,9.53-12.58,18.96-6.01-.11,18.85-28.39Z"/>
      </g>
    </g>
  </g>
  <g id="Grupo_525" data-name="Grupo 525">
    <rect id="Rectángulo_510" data-name="Rectángulo 510" class="cls-7" x="57.69" width="89.22" height="49.99" rx="3" ry="3"/>
    <g id="Grupo_524" data-name="Grupo 524">
      <path id="Trazado_739" data-name="Trazado 739" d="m140.62,42.32c0-1.06.87-1.91,1.92-1.91s1.91.87,1.91,1.92c0,1.05-.86,1.91-1.92,1.91-1.06,0-1.92-.86-1.92-1.93m3.37,0c-.05-.8-.75-1.41-1.55-1.35-.8.05-1.41.75-1.35,1.55.05.76.69,1.35,1.45,1.35.81-.01,1.46-.68,1.45-1.5,0-.02,0-.04,0-.05m-2.19-1.1h.81c.52,0,.8.18.8.64.02.3-.2.56-.5.58-.02,0-.05,0-.07,0l.58.96h-.41l-.56-.94h-.24v.94h-.4v-2.18Zm.4.93h.36c.24,0,.45-.03.45-.32,0-.25-.23-.3-.44-.3h-.36v.62Z"/>
      <rect id="Rectángulo_511" data-name="Rectángulo 511" class="cls-2" x="62.4" y="5.47" width="78.03" height="41.07" rx="2" ry="2"/>
      <path id="Trazado_740" data-name="Trazado 740" class="cls-5" d="m134.28,7.53h-65.7c-2.27,0-4.1,1.83-4.11,4.1h73.93c0-2.27-1.84-4.1-4.11-4.1"/>
      <path id="Trazado_741" data-name="Trazado 741" class="cls-5" d="m68.55,44.47h65.7c2.26,0,4.1-1.84,4.1-4.1h0s-73.91,0-73.91,0c0,2.27,1.84,4.1,4.11,4.1"/>
      <path id="Trazado_742" data-name="Trazado 742" class="cls-8" d="m82.96,26.02c0-3.4-2.76-6.16-6.16-6.16s-6.16,2.76-6.16,6.16,2.76,6.16,6.16,6.16h0c3.4,0,6.16-2.76,6.16-6.16m49.26,0c0-3.4-2.76-6.16-6.16-6.16-3.4,0-6.16,2.76-6.16,6.16,0,3.4,2.76,6.16,6.16,6.16h0c3.4,0,6.16-2.76,6.16-6.16m4.1,0c0,5.67-4.59,10.27-10.26,10.27s-10.27-4.59-10.27-10.26c0-5.67,4.59-10.27,10.26-10.27h0c5.67,0,10.27,4.59,10.27,10.26h0m-49.25,0c0,5.67-4.59,10.27-10.26,10.27-5.67,0-10.27-4.59-10.27-10.26,0-5.67,4.59-10.27,10.26-10.27h0c5.67,0,10.27,4.6,10.27,10.26m51.33,12.3V13.68h-14.05c-1.52.01-4.66.31-7.77,3.96l-6.5,8.52,5.32,6.8c.7.89.54,2.19-.36,2.88-.89.7-2.19.54-2.88-.36h0l-4.68-6-3.54,4.52-.03.04-1.11,1.43c-.7.89-1.99,1.06-2.88.36-.56-.44-.86-1.13-.78-1.84.04-.38.19-.75.43-1.05l1.98-2.54,3.32-4.26-2.22-2.86,2.55-3.4,2.27,2.93,5.57-7.08c.15-.2,1.24-1.8,2.41-2.06h-50.98v24.64h14.54c1.64-.1,4.45-.71,7.24-3.97l6.5-8.52-5.32-6.8c-.68-.9-.5-2.19.4-2.88.88-.67,2.14-.51,2.83.35l4.69,6,3.53-4.52.04-.05,1.12-1.42c.69-.89,1.98-1.05,2.87-.36.56.44.86,1.13.78,1.84-.04.38-.18.75-.42,1.05l-1.98,2.54-3.33,4.26,2.25,2.88-2.56,3.4-2.3-2.95-5.57,7.08c-.15.2-1.31,1.9-2.52,2.07h51.14Z"/>
    </g>
  </g>
</svg>